<svg xmlns="http://www.w3.org/2000/svg" version="1.1" xmlns:xlink="http://www.w3.org/1999/xlink"
     xmlns:svgjs="http://svgjs.com/svgjs" viewBox="0 0 24 24" style="width:24px; height:24px" class="feather feather-podcast">
    <title>social music podcast (From Streamline App : https://app.streamlineicons.com)</title>
    <g transform="matrix(1,0,0,1,0,0)">
        <path d="M 7.13,13c-1.688-2.69-0.877-6.239,1.813-7.927s6.239-0.877,7.927,1.813c1.173,1.869,1.173,4.245,0,6.114 "
              stroke="currentColor" fill="none" stroke-width="1.5" stroke-linecap="round" stroke-linejoin="round"></path>
        <path d="M 5.13,16.38c-3.472-3.8-3.207-9.695,0.593-13.167s9.695-3.207,13.167,0.593c3.253,3.56,3.253,9.014,0,12.574 "
              stroke="currentColor" fill="none" stroke-width="1.5" stroke-linecap="round" stroke-linejoin="round"></path>
        <path d="M 15.19,16.6 c0.099-1.1-0.712-2.072-1.812-2.172c-0.063-0.006-0.125-0.008-0.188-0.008h-2.43c-1.105-0.004-2.004,0.887-2.008,1.992 c0,0.063,0.002,0.126,0.008,0.188l0.55,4.91c0.127,1.006,0.986,1.758,2,1.75h1.39c1.014,0.008,1.873-0.744,2-1.75L15.19,16.6z "
              stroke="currentColor" fill="none" stroke-width="1.5" stroke-linecap="round" stroke-linejoin="round"></path>
        <path d="M 12,7.59c1.353,0,2.45,1.097,2.45,2.45s-1.097,2.45-2.45,2.45s-2.45-1.097-2.45-2.45S10.647,7.59,12,7.59z"
              stroke="currentColor" fill="none" stroke-width="1.5" stroke-linecap="round" stroke-linejoin="round"></path>
    </g>
</svg>
