<svg xmlns="http://www.w3.org/2000/svg" version="1.1" xmlns:xlink="http://www.w3.org/1999/xlink"
     xmlns:svgjs="http://svgjs.com/svgjs" viewBox="0 0 24 24" style="width:24px; height:24px" class="feather feather-yammer">
    <g transform="matrix(1,0,0,1,0,0)">
        <path d="M 23.22,12.38c0,2.81-6.65,0.63-6.75,0.6c-0.49-0.19-0.82-0.34-0.84-0.6s0.35-0.43,0.84-0.6 S23.22,9.27,23.22,12.38z "
              stroke="currentColor" fill="none" stroke-width="1.5" stroke-linecap="round" stroke-linejoin="round"></path>
        <path d="M 21.23,5.21c1.43,2.42-5.4,3.93-5.51,3.95c-0.52,0.08-0.87,0.13-1-0.09s0.08-0.55,0.42-0.94 S19.65,2.54,21.23,5.21z "
              stroke="currentColor" fill="none" stroke-width="1.5" stroke-linecap="round" stroke-linejoin="round"></path>
        <path d="M 15.11,16.62c-0.34-0.39-0.53-0.7-0.42-0.94s0.5-0.17,1-0.09c7.32,1.56,5.41,3.95,5.51,3.95 C19.65,22.21,15.52,17.1,15.11,16.62z "
              stroke="currentColor" fill="none" stroke-width="1.5" stroke-linecap="round" stroke-linejoin="round"></path>
        <path d="M 13.92,4.16c0.32-0.765-0.04-1.645-0.805-1.965S11.47,2.235,11.15,3l-3.77,9.09L3.67,3 C3.352,2.232,2.473,1.867,1.705,2.185S0.572,3.382,0.89,4.15L5.75,16l-0.81,2c-0.231,0.563-0.781,0.931-1.39,0.93H2.28 c-0.828,0-1.5,0.672-1.5,1.5s0.672,1.5,1.5,1.5h1.27c1.822,0.003,3.466-1.095,4.16-2.78l1-2.53l0,0L13.92,4.16z"
              stroke="currentColor" fill="none" stroke-width="1.5" stroke-linecap="round" stroke-linejoin="round"></path>
    </g>
</svg>
