<svg width="56" height="56" viewBox="0 0 56 56" xmlns="http://www.w3.org/2000/svg"><g class="nc-icon-wrapper"><title>73 -Coffee- (Webby)</title><g transform="translate(1 1)" stroke="none" stroke-width="1" fill="none" fill-rule="evenodd"><path d="M12.15 50h23.691c10.555-4.321 12.064-14.961 12.15-24.994A1.001 1.001 0 0 0 46.988 24H1.003C.448 24-.005 24.451 0 25.006.086 35.039 1.595 45.679 12.15 50" fill="#FFF"></path><path d="M12.15 50h23.691c10.555-4.321 12.064-14.961 12.15-24.994A1.001 1.001 0 0 0 46.988 24H1.003C.448 24-.005 24.451 0 25.006.086 35.039 1.595 45.679 12.15 50z" stroke="#0F81E0" stroke-width="2" stroke-linecap="round" stroke-linejoin="round"></path><path d="M23.996.014c2.667 2.605 2.729 5.46 0 8-2.667 2.543-2.667 5.293 0 8" stroke="#1081E0" stroke-width="2" stroke-linecap="round" stroke-linejoin="round"></path><path d="M34.996.014c2.667 2.605 2.706 5.46-.023 8-2.667 2.543-2.667 5.293 0 8" stroke="#1081E0" stroke-width="2" stroke-linecap="round" stroke-linejoin="round"></path><path d="M13.996.014c2.667 2.605 2.706 5.46-.023 8-2.667 2.543-2.667 5.293 0 8" stroke="#1081E0" stroke-width="2" stroke-linecap="round" stroke-linejoin="round"></path><path d="M17.996 47c-8.37-1.42-11.653-6.6-13-14" stroke="#1081E0" stroke-width="2" stroke-linecap="round" stroke-linejoin="round"></path><path d="M37.992 24.02v4" stroke="#1081E0" stroke-width="2" stroke-linecap="round" stroke-linejoin="round"></path><path fill="#C6E3F8" d="M40.983 38.04h-6v-8l3.01-2.02 2.998 2.02z"></path><path stroke="#0F81E0" stroke-width="2" stroke-linecap="round" stroke-linejoin="round" d="M40.983 38.04h-6v-8l3.01-2.02 2.998 2.02z"></path><path d="M47.977 26.006c-.12 6.4-.921 12.95-4.353 17.878C49.485 43.09 54 38.087 54 32.006v-2.572a3.428 3.428 0 0 0-3.428-3.428h-2.595z" stroke="#1081E0" stroke-width="2" stroke-linecap="round" stroke-linejoin="round"></path><path d="M15 54H2a2 2 0 1 1 0-4h42a2 2 0 1 1 0 4H32l-3-1H18l-3 1z" fill="#C6E3F8"></path><path d="M15 54H2a2 2 0 1 1 0-4h42a2 2 0 1 1 0 4H32l-3-1H18l-3 1z" stroke="#0F81E0" stroke-width="2" stroke-linecap="round" stroke-linejoin="round"></path></g></g></svg>