<?xml version="1.0" encoding="UTF-8"?>
<svg width="45px" height="58px" viewBox="0 0 45 58" version="1.1" xmlns="http://www.w3.org/2000/svg" xmlns:xlink="http://www.w3.org/1999/xlink">
    <!-- Generator: Sketch 48 (47235) - http://www.bohemiancoding.com/sketch -->
    <title>Slice 1</title>
    <desc>Created with Sketch.</desc>
    <defs></defs>
    <g id="Page-1" stroke="none" stroke-width="1" fill="none" fill-rule="evenodd">
        <g id="imageIconDefault" transform="translate(1.000000, 1.000000)">
            <path d="M30.485,0 L1.463,0 C0.655,0 0,0.655 0,1.926 L0,55 C0,55.345 0.655,56 1.463,56 L41.537,56 C42.345,56 43,55.345 43,55 L43,12.978 C43,12.282 42.907,12.058 42.743,11.893 L31.107,0.257 C30.9416616,0.0926740572 30.7181088,0.000305798304 30.485,0 Z" id="Shape" fill="#FFFFFF" fill-rule="nonzero"></path>
            <path d="M30.485,0 L1.463,0 C0.655,0 0,0.655 0,1.926 L0,55 C0,55.345 0.655,56 1.463,56 L41.537,56 C42.345,56 43,55.345 43,55 L43,12.978 C43,12.282 42.907,12.058 42.743,11.893 L31.107,0.257 C30.9416616,0.0926740572 30.7181088,0.000305798304 30.485,0 Z" id="Shape" stroke="#0096E6" stroke-width="2"></path>
            <path d="M41.537,56 L1.463,56 C0.655007411,56 9.89505538e-17,55.3449926 0,54.537 L0,39 L43,39 L43,54.537 C43,55.345 42.345,56 41.537,56 Z" id="Shape" fill="#D0E8F9" fill-rule="nonzero"></path>
            <path d="M41.537,56 L1.463,56 C0.655007411,56 9.89505538e-17,55.3449926 0,54.537 L0,39 L43,39 L43,54.537 C43,55.345 42.345,56 41.537,56 Z" id="Shape" stroke="#0096E6" stroke-width="2"></path>
            <path d="M31,1.391 L31,12 L41.609,12 C41.8166124,11.9996347 42.00362,11.8744071 42.0830204,11.6825774 C42.1624209,11.4907478 42.1186218,11.2699867 41.972,11.123 L31.877,1.028 C31.7300133,0.881378239 31.5092522,0.837579138 31.3174226,0.916979556 C31.1255929,0.996379974 31.0003653,1.18338759 31,1.391 Z" id="Shape" fill="#D0E8F9" fill-rule="nonzero"></path>
            <path d="M31,1.391 L31,12 L41.609,12 C41.8166124,11.9996347 42.00362,11.8744071 42.0830204,11.6825774 C42.1624209,11.4907478 42.1186218,11.2699867 41.972,11.123 L31.877,1.028 C31.7300133,0.881378239 31.5092522,0.837579138 31.3174226,0.916979556 C31.1255929,0.996379974 31.0003653,1.18338759 31,1.391 Z" id="Shape" stroke="#0096E6" stroke-width="2"></path>
            <path d="M13.569,17.069 C13.5932084,18.7176376 12.7274721,20.251489 11.3035475,21.0827715 C9.87962287,21.914054 8.11831674,21.9138613 6.69457406,21.0822672 C5.27083137,20.2506731 4.40543082,18.7166323 4.43,17.068 C4.46721674,14.5706954 6.50241076,12.5658248 8.99999266,12.5660981 C11.4975746,12.5663714 13.5323298,14.5716873 13.569,17.069 Z" id="Shape" fill="#FFFFFF" fill-rule="nonzero"></path>
            <path d="M13.569,17.069 C13.5932084,18.7176376 12.7274721,20.251489 11.3035475,21.0827715 C9.87962287,21.914054 8.11831674,21.9138613 6.69457406,21.0822672 C5.27083137,20.2506731 4.40543082,18.7166323 4.43,17.068 C4.46721674,14.5706954 6.50241076,12.5658248 8.99999266,12.5660981 C11.4975746,12.5663714 13.5323298,14.5716873 13.569,17.069 Z" id="Shape" stroke="#0096E6" stroke-width="2"></path>
            <path d="M0,39 L17.017,24.517 L27.983,35.483 M22.5,30 L33,18.5 L43,28" id="Shape" stroke="#0096E6" stroke-width="2" stroke-linecap="round" stroke-linejoin="round"></path>
            <path d="M2,1 C2,1.55228475 1.55228475,2 1,2 C0.44771525,2 6.76353751e-17,1.55228475 0,1 C-6.76353751e-17,0.44771525 0.44771525,3.23497668e-16 1,2.22044605e-16 C1.55228475,1.20591542e-16 2,0.44771525 2,1" id="Shape" fill="#0096E6" fill-rule="nonzero"></path>
            <path d="M6,1 C6,1.55228475 5.55228475,2 5,2 C4.44771525,2 4,1.55228475 4,1 C4,0.44771525 4.44771525,3.23497668e-16 5,2.22044605e-16 C5.55228475,1.20591542e-16 6,0.44771525 6,1" id="Shape" fill="#0096E6" fill-rule="nonzero"></path>
            <path d="M4,3 C4,3.55228475 3.55228475,4 3,4 C2.44771525,4 2,3.55228475 2,3 C2,2.44771525 2.44771525,2 3,2 C3.55228475,2 4,2.44771525 4,3" id="Shape" fill="#0096E6" fill-rule="nonzero"></path>
            <path d="M8,3 C8,3.55228475 7.55228475,4 7,4 C6.44771525,4 6,3.55228475 6,3 C6,2.44771525 6.44771525,2 7,2 C7.55228475,2 8,2.44771525 8,3" id="Shape" fill="#0096E6" fill-rule="nonzero"></path>
            <path d="M10,1 C10,1.55228475 9.55228475,2 9,2 C8.44771525,2 8,1.55228475 8,1 C8,0.44771525 8.44771525,3.23497668e-16 9,2.22044605e-16 C9.55228475,1.20591542e-16 10,0.44771525 10,1" id="Shape" fill="#0096E6" fill-rule="nonzero"></path>
            <path d="M14,1 C14,1.55228475 13.5522847,2 13,2 C12.4477153,2 12,1.55228475 12,1 C12,0.44771525 12.4477153,3.23497668e-16 13,2.22044605e-16 C13.5522847,1.20591542e-16 14,0.44771525 14,1" id="Shape" fill="#0096E6" fill-rule="nonzero"></path>
            <path d="M12,3 C12,3.55228475 11.5522847,4 11,4 C10.4477153,4 10,3.55228475 10,3 C10,2.44771525 10.4477153,2 11,2 C11.5522847,2 12,2.44771525 12,3" id="Shape" fill="#0096E6" fill-rule="nonzero"></path>
            <path d="M16,3 C16,3.55228475 15.5522847,4 15,4 C14.4477153,4 14,3.55228475 14,3 C14,2.44771525 14.4477153,2 15,2 C15.5522847,2 16,2.44771525 16,3" id="Shape" fill="#0096E6" fill-rule="nonzero"></path>
            <path d="M18,1 C18,1.55228475 17.5522847,2 17,2 C16.4477153,2 16,1.55228475 16,1 C16,0.44771525 16.4477153,3.23497668e-16 17,2.22044605e-16 C17.5522847,1.20591542e-16 18,0.44771525 18,1" id="Shape" fill="#0096E6" fill-rule="nonzero"></path>
            <path d="M22,1 C22,1.55228475 21.5522847,2 21,2 C20.4477153,2 20,1.55228475 20,1 C20,0.44771525 20.4477153,3.23497668e-16 21,2.22044605e-16 C21.5522847,1.20591542e-16 22,0.44771525 22,1" id="Shape" fill="#0096E6" fill-rule="nonzero"></path>
            <path d="M20,3 C20,3.55228475 19.5522847,4 19,4 C18.4477153,4 18,3.55228475 18,3 C18,2.44771525 18.4477153,2 19,2 C19.5522847,2 20,2.44771525 20,3" id="Shape" fill="#0096E6" fill-rule="nonzero"></path>
            <path d="M24,3 C24,3.55228475 23.5522847,4 23,4 C22.4477153,4 22,3.55228475 22,3 C22,2.44771525 22.4477153,2 23,2 C23.5522847,2 24,2.44771525 24,3" id="Shape" fill="#0096E6" fill-rule="nonzero"></path>
            <path d="M26,1 C26,1.55228475 25.5522847,2 25,2 C24.4477153,2 24,1.55228475 24,1 C24,0.44771525 24.4477153,3.23497668e-16 25,2.22044605e-16 C25.5522847,1.20591542e-16 26,0.44771525 26,1" id="Shape" fill="#0096E6" fill-rule="nonzero"></path>
            <path d="M30,1 C30,1.55228475 29.5522847,2 29,2 C28.4477153,2 28,1.55228475 28,1 C28,0.44771525 28.4477153,3.23497668e-16 29,2.22044605e-16 C29.5522847,1.20591542e-16 30,0.44771525 30,1" id="Shape" fill="#0096E6" fill-rule="nonzero"></path>
            <path d="M28,3 C28,3.55228475 27.5522847,4 27,4 C26.4477153,4 26,3.55228475 26,3 C26,2.44771525 26.4477153,2 27,2 C27.5522847,2 28,2.44771525 28,3" id="Shape" fill="#0096E6" fill-rule="nonzero"></path>
            <path d="M30,5 C30,5.55228475 29.5522847,6 29,6 C28.4477153,6 28,5.55228475 28,5 C28,4.44771525 28.4477153,4 29,4 C29.5522847,4 30,4.44771525 30,5" id="Shape" fill="#0096E6" fill-rule="nonzero"></path>
            <path d="M26,5 C26,5.55228475 25.5522847,6 25,6 C24.4477153,6 24,5.55228475 24,5 C24,4.44771525 24.4477153,4 25,4 C25.5522847,4 26,4.44771525 26,5" id="Shape" fill="#0096E6" fill-rule="nonzero"></path>
            <path d="M22,5 C22,5.55228475 21.5522847,6 21,6 C20.4477153,6 20,5.55228475 20,5 C20,4.44771525 20.4477153,4 21,4 C21.5522847,4 22,4.44771525 22,5" id="Shape" fill="#0096E6" fill-rule="nonzero"></path>
            <path d="M18,5 C18,5.55228475 17.5522847,6 17,6 C16.4477153,6 16,5.55228475 16,5 C16,4.44771525 16.4477153,4 17,4 C17.5522847,4 18,4.44771525 18,5" id="Shape" fill="#0096E6" fill-rule="nonzero"></path>
            <path d="M14,5 C14,5.55228475 13.5522847,6 13,6 C12.4477153,6 12,5.55228475 12,5 C12,4.44771525 12.4477153,4 13,4 C13.5522847,4 14,4.44771525 14,5" id="Shape" fill="#0096E6" fill-rule="nonzero"></path>
            <path d="M10,5 C10,5.55228475 9.55228475,6 9,6 C8.44771525,6 8,5.55228475 8,5 C8,4.44771525 8.44771525,4 9,4 C9.55228475,4 10,4.44771525 10,5" id="Shape" fill="#0096E6" fill-rule="nonzero"></path>
            <path d="M6,5 C6,5.55228475 5.55228475,6 5,6 C4.44771525,6 4,5.55228475 4,5 C4,4.44771525 4.44771525,4 5,4 C5.55228475,4 6,4.44771525 6,5" id="Shape" fill="#0096E6" fill-rule="nonzero"></path>
            <path d="M2,5 C2,5.55228475 1.55228475,6 1,6 C0.44771525,6 6.76353751e-17,5.55228475 0,5 C-6.76353751e-17,4.44771525 0.44771525,4 1,4 C1.55228475,4 2,4.44771525 2,5" id="Shape" fill="#0096E6" fill-rule="nonzero"></path>
            <path d="M4,7 C4,7.55228475 3.55228475,8 3,8 C2.44771525,8 2,7.55228475 2,7 C2,6.44771525 2.44771525,6 3,6 C3.55228475,6 4,6.44771525 4,7" id="Shape" fill="#0096E6" fill-rule="nonzero"></path>
            <path d="M8,7 C8,7.55228475 7.55228475,8 7,8 C6.44771525,8 6,7.55228475 6,7 C6,6.44771525 6.44771525,6 7,6 C7.55228475,6 8,6.44771525 8,7" id="Shape" fill="#0096E6" fill-rule="nonzero"></path>
            <path d="M12,7 C12,7.55228475 11.5522847,8 11,8 C10.4477153,8 10,7.55228475 10,7 C10,6.44771525 10.4477153,6 11,6 C11.5522847,6 12,6.44771525 12,7" id="Shape" fill="#0096E6" fill-rule="nonzero"></path>
            <path d="M16,7 C16,7.55228475 15.5522847,8 15,8 C14.4477153,8 14,7.55228475 14,7 C14,6.44771525 14.4477153,6 15,6 C15.5522847,6 16,6.44771525 16,7" id="Shape" fill="#0096E6" fill-rule="nonzero"></path>
            <path d="M20,7 C20,7.55228475 19.5522847,8 19,8 C18.4477153,8 18,7.55228475 18,7 C18,6.44771525 18.4477153,6 19,6 C19.5522847,6 20,6.44771525 20,7" id="Shape" fill="#0096E6" fill-rule="nonzero"></path>
            <path d="M24,7 C24,7.55228475 23.5522847,8 23,8 C22.4477153,8 22,7.55228475 22,7 C22,6.44771525 22.4477153,6 23,6 C23.5522847,6 24,6.44771525 24,7" id="Shape" fill="#0096E6" fill-rule="nonzero"></path>
            <path d="M28,7 C28,7.55228475 27.5522847,8 27,8 C26.4477153,8 26,7.55228475 26,7 C26,6.44771525 26.4477153,6 27,6 C27.5522847,6 28,6.44771525 28,7" id="Shape" fill="#0096E6" fill-rule="nonzero"></path>
            <path d="M30,9 C30,9.55228475 29.5522847,10 29,10 C28.4477153,10 28,9.55228475 28,9 C28,8.44771525 28.4477153,8 29,8 C29.5522847,8 30,8.44771525 30,9" id="Shape" fill="#0096E6" fill-rule="nonzero"></path>
            <path d="M26,9 C26,9.55228475 25.5522847,10 25,10 C24.4477153,10 24,9.55228475 24,9 C24,8.44771525 24.4477153,8 25,8 C25.5522847,8 26,8.44771525 26,9" id="Shape" fill="#0096E6" fill-rule="nonzero"></path>
            <path d="M22,9 C22,9.55228475 21.5522847,10 21,10 C20.4477153,10 20,9.55228475 20,9 C20,8.44771525 20.4477153,8 21,8 C21.5522847,8 22,8.44771525 22,9" id="Shape" fill="#0096E6" fill-rule="nonzero"></path>
            <path d="M18,9 C18,9.55228475 17.5522847,10 17,10 C16.4477153,10 16,9.55228475 16,9 C16,8.44771525 16.4477153,8 17,8 C17.5522847,8 18,8.44771525 18,9" id="Shape" fill="#0096E6" fill-rule="nonzero"></path>
            <path d="M14,9 C14,9.55228475 13.5522847,10 13,10 C12.4477153,10 12,9.55228475 12,9 C12,8.44771525 12.4477153,8 13,8 C13.5522847,8 14,8.44771525 14,9" id="Shape" fill="#0096E6" fill-rule="nonzero"></path>
            <path d="M10,9 C10,9.55228475 9.55228475,10 9,10 C8.44771525,10 8,9.55228475 8,9 C8,8.44771525 8.44771525,8 9,8 C9.55228475,8 10,8.44771525 10,9" id="Shape" fill="#0096E6" fill-rule="nonzero"></path>
            <path d="M6,9 C6,9.55228475 5.55228475,10 5,10 C4.44771525,10 4,9.55228475 4,9 C4,8.44771525 4.44771525,8 5,8 C5.55228475,8 6,8.44771525 6,9" id="Shape" fill="#0096E6" fill-rule="nonzero"></path>
            <path d="M2,9 C2,9.55228475 1.55228475,10 1,10 C0.44771525,10 6.76353751e-17,9.55228475 0,9 C-6.76353751e-17,8.44771525 0.44771525,8 1,8 C1.55228475,8 2,8.44771525 2,9" id="Shape" fill="#0096E6" fill-rule="nonzero"></path>
            <path d="M4,11 C4,11.5522847 3.55228475,12 3,12 C2.44771525,12 2,11.5522847 2,11 C2,10.4477153 2.44771525,10 3,10 C3.55228475,10 4,10.4477153 4,11" id="Shape" fill="#0096E6" fill-rule="nonzero"></path>
            <path d="M8,11 C8,11.5522847 7.55228475,12 7,12 C6.44771525,12 6,11.5522847 6,11 C6,10.4477153 6.44771525,10 7,10 C7.55228475,10 8,10.4477153 8,11" id="Shape" fill="#0096E6" fill-rule="nonzero"></path>
            <path d="M12,11 C12,11.5522847 11.5522847,12 11,12 C10.4477153,12 10,11.5522847 10,11 C10,10.4477153 10.4477153,10 11,10 C11.5522847,10 12,10.4477153 12,11" id="Shape" fill="#0096E6" fill-rule="nonzero"></path>
            <path d="M16,11 C16,11.5522847 15.5522847,12 15,12 C14.4477153,12 14,11.5522847 14,11 C14,10.4477153 14.4477153,10 15,10 C15.5522847,10 16,10.4477153 16,11" id="Shape" fill="#0096E6" fill-rule="nonzero"></path>
            <path d="M20,11 C20,11.5522847 19.5522847,12 19,12 C18.4477153,12 18,11.5522847 18,11 C18,10.4477153 18.4477153,10 19,10 C19.5522847,10 20,10.4477153 20,11" id="Shape" fill="#0096E6" fill-rule="nonzero"></path>
            <path d="M24,11 C24,11.5522847 23.5522847,12 23,12 C22.4477153,12 22,11.5522847 22,11 C22,10.4477153 22.4477153,10 23,10 C23.5522847,10 24,10.4477153 24,11" id="Shape" fill="#0096E6" fill-rule="nonzero"></path>
            <path d="M28,11 C28,11.5522847 27.5522847,12 27,12 C26.4477153,12 26,11.5522847 26,11 C26,10.4477153 26.4477153,10 27,10 C27.5522847,10 28,10.4477153 28,11" id="Shape" fill="#0096E6" fill-rule="nonzero"></path>
            <path d="M30,13 C30,13.5522847 29.5522847,14 29,14 C28.4477153,14 28,13.5522847 28,13 C28,12.4477153 28.4477153,12 29,12 C29.5522847,12 30,12.4477153 30,13" id="Shape" fill="#0096E6" fill-rule="nonzero"></path>
            <path d="M26,13 C26,13.5522847 25.5522847,14 25,14 C24.4477153,14 24,13.5522847 24,13 C24,12.4477153 24.4477153,12 25,12 C25.5522847,12 26,12.4477153 26,13" id="Shape" fill="#0096E6" fill-rule="nonzero"></path>
            <path d="M22,13 C22,13.5522847 21.5522847,14 21,14 C20.4477153,14 20,13.5522847 20,13 C20,12.4477153 20.4477153,12 21,12 C21.5522847,12 22,12.4477153 22,13" id="Shape" fill="#0096E6" fill-rule="nonzero"></path>
            <path d="M18,13 C18,13.5522847 17.5522847,14 17,14 C16.4477153,14 16,13.5522847 16,13 C16,12.4477153 16.4477153,12 17,12 C17.5522847,12 18,12.4477153 18,13" id="Shape" fill="#0096E6" fill-rule="nonzero"></path>
            <path d="M14,13 C14,13.5522847 13.5522847,14 13,14 C12.4477153,14 12,13.5522847 12,13 C12,12.4477153 12.4477153,12 13,12 C13.5522847,12 14,12.4477153 14,13" id="Shape" fill="#0096E6" fill-rule="nonzero"></path>
            <path d="M6,13 C6,13.5522847 5.55228475,14 5,14 C4.44771525,14 4,13.5522847 4,13 C4,12.4477153 4.44771525,12 5,12 C5.55228475,12 6,12.4477153 6,13" id="Shape" fill="#0096E6" fill-rule="nonzero"></path>
            <path d="M2,13 C2,13.5522847 1.55228475,14 1,14 C0.44771525,14 6.76353751e-17,13.5522847 0,13 C-6.76353751e-17,12.4477153 0.44771525,12 1,12 C1.55228475,12 2,12.4477153 2,13" id="Shape" fill="#0096E6" fill-rule="nonzero"></path>
            <path d="M4,15 C4,15.5522847 3.55228475,16 3,16 C2.44771525,16 2,15.5522847 2,15 C2,14.4477153 2.44771525,14 3,14 C3.55228475,14 4,14.4477153 4,15" id="Shape" fill="#0096E6" fill-rule="nonzero"></path>
            <path d="M16,15 C16,15.5522847 15.5522847,16 15,16 C14.4477153,16 14,15.5522847 14,15 C14,14.4477153 14.4477153,14 15,14 C15.5522847,14 16,14.4477153 16,15" id="Shape" fill="#0096E6" fill-rule="nonzero"></path>
            <path d="M20,15 C20,15.5522847 19.5522847,16 19,16 C18.4477153,16 18,15.5522847 18,15 C18,14.4477153 18.4477153,14 19,14 C19.5522847,14 20,14.4477153 20,15" id="Shape" fill="#0096E6" fill-rule="nonzero"></path>
            <path d="M24,15 C24,15.5522847 23.5522847,16 23,16 C22.4477153,16 22,15.5522847 22,15 C22,14.4477153 22.4477153,14 23,14 C23.5522847,14 24,14.4477153 24,15" id="Shape" fill="#0096E6" fill-rule="nonzero"></path>
            <path d="M28,15 C28,15.5522847 27.5522847,16 27,16 C26.4477153,16 26,15.5522847 26,15 C26,14.4477153 26.4477153,14 27,14 C27.5522847,14 28,14.4477153 28,15" id="Shape" fill="#0096E6" fill-rule="nonzero"></path>
            <path d="M32,15 C32,15.5522847 31.5522847,16 31,16 C30.4477153,16 30,15.5522847 30,15 C30,14.4477153 30.4477153,14 31,14 C31.5522847,14 32,14.4477153 32,15" id="Shape" fill="#0096E6" fill-rule="nonzero"></path>
            <path d="M34,13 C34,13.5522847 33.5522847,14 33,14 C32.4477153,14 32,13.5522847 32,13 C32,12.4477153 32.4477153,12 33,12 C33.5522847,12 34,12.4477153 34,13" id="Shape" fill="#0096E6" fill-rule="nonzero"></path>
            <path d="M36,15 C36,15.5522847 35.5522847,16 35,16 C34.4477153,16 34,15.5522847 34,15 C34,14.4477153 34.4477153,14 35,14 C35.5522847,14 36,14.4477153 36,15" id="Shape" fill="#0096E6" fill-rule="nonzero"></path>
            <path d="M38,13 C38,13.5522847 37.5522847,14 37,14 C36.4477153,14 36,13.5522847 36,13 C36,12.4477153 36.4477153,12 37,12 C37.5522847,12 38,12.4477153 38,13" id="Shape" fill="#0096E6" fill-rule="nonzero"></path>
            <path d="M38,17 C38,17.5522847 37.5522847,18 37,18 C36.4477153,18 36,17.5522847 36,17 C36,16.4477153 36.4477153,16 37,16 C37.5522847,16 38,16.4477153 38,17" id="Shape" fill="#0096E6" fill-rule="nonzero"></path>
            <path d="M32,19 C32,19.5522847 31.5522847,20 31,20 C30.4477153,20 30,19.5522847 30,19 C30,18.4477153 30.4477153,18 31,18 C31.5522847,18 32,18.4477153 32,19" id="Shape" fill="#0096E6" fill-rule="nonzero"></path>
            <path d="M34,17 C34,17.5522847 33.5522847,18 33,18 C32.4477153,18 32,17.5522847 32,17 C32,16.4477153 32.4477153,16 33,16 C33.5522847,16 34,16.4477153 34,17" id="Shape" fill="#0096E6" fill-rule="nonzero"></path>
            <path d="M36,19 C36,19.5522847 35.5522847,20 35,20 C34.4477153,20 34,19.5522847 34,19 C34,18.4477153 34.4477153,18 35,18 C35.5522847,18 36,18.4477153 36,19" id="Shape" fill="#0096E6" fill-rule="nonzero"></path>
            <path d="M38,21 C38,21.5522847 37.5522847,22 37,22 C36.4477153,22 36,21.5522847 36,21 C36,20.4477153 36.4477153,20 37,20 C37.5522847,20 38,20.4477153 38,21" id="Shape" fill="#0096E6" fill-rule="nonzero"></path>
            <path d="M40,23 C40,23.5522847 39.5522847,24 39,24 C38.4477153,24 38,23.5522847 38,23 C38,22.4477153 38.4477153,22 39,22 C39.5522847,22 40,22.4477153 40,23" id="Shape" fill="#0096E6" fill-rule="nonzero"></path>
            <path d="M42,25 C42,25.5522847 41.5522847,26 41,26 C40.4477153,26 40,25.5522847 40,25 C40,24.4477153 40.4477153,24 41,24 C41.5522847,24 42,24.4477153 42,25" id="Shape" fill="#0096E6" fill-rule="nonzero"></path>
            <path d="M42,21 C42,21.5522847 41.5522847,22 41,22 C40.4477153,22 40,21.5522847 40,21 C40,20.4477153 40.4477153,20 41,20 C41.5522847,20 42,20.4477153 42,21" id="Shape" fill="#0096E6" fill-rule="nonzero"></path>
            <path d="M40,19 C40,19.5522847 39.5522847,20 39,20 C38.4477153,20 38,19.5522847 38,19 C38,18.4477153 38.4477153,18 39,18 C39.5522847,18 40,18.4477153 40,19" id="Shape" fill="#0096E6" fill-rule="nonzero"></path>
            <path d="M42,17 C42,17.5522847 41.5522847,18 41,18 C40.4477153,18 40,17.5522847 40,17 C40,16.4477153 40.4477153,16 41,16 C41.5522847,16 42,16.4477153 42,17" id="Shape" fill="#0096E6" fill-rule="nonzero"></path>
            <path d="M40,15 C40,15.5522847 39.5522847,16 39,16 C38.4477153,16 38,15.5522847 38,15 C38,14.4477153 38.4477153,14 39,14 C39.5522847,14 40,14.4477153 40,15" id="Shape" fill="#0096E6" fill-rule="nonzero"></path>
            <path d="M42,13 C42,13.5522847 41.5522847,14 41,14 C40.4477153,14 40,13.5522847 40,13 C40,12.4477153 40.4477153,12 41,12 C41.5522847,12 42,12.4477153 42,13" id="Shape" fill="#0096E6" fill-rule="nonzero"></path>
            <path d="M30,17 C30,17.5522847 29.5522847,18 29,18 C28.4477153,18 28,17.5522847 28,17 C28,16.4477153 28.4477153,16 29,16 C29.5522847,16 30,16.4477153 30,17" id="Shape" fill="#0096E6" fill-rule="nonzero"></path>
            <path d="M26,17 C26,17.5522847 25.5522847,18 25,18 C24.4477153,18 24,17.5522847 24,17 C24,16.4477153 24.4477153,16 25,16 C25.5522847,16 26,16.4477153 26,17" id="Shape" fill="#0096E6" fill-rule="nonzero"></path>
            <path d="M22,17 C22,17.5522847 21.5522847,18 21,18 C20.4477153,18 20,17.5522847 20,17 C20,16.4477153 20.4477153,16 21,16 C21.5522847,16 22,16.4477153 22,17" id="Shape" fill="#0096E6" fill-rule="nonzero"></path>
            <path d="M18,17 C18,17.5522847 17.5522847,18 17,18 C16.4477153,18 16,17.5522847 16,17 C16,16.4477153 16.4477153,16 17,16 C17.5522847,16 18,16.4477153 18,17" id="Shape" fill="#0096E6" fill-rule="nonzero"></path>
            <path d="M2,17 C2,17.5522847 1.55228475,18 1,18 C0.44771525,18 6.76353751e-17,17.5522847 0,17 C-6.76353751e-17,16.4477153 0.44771525,16 1,16 C1.55228475,16 2,16.4477153 2,17" id="Shape" fill="#0096E6" fill-rule="nonzero"></path>
            <path d="M4,19 C4,19.5522847 3.55228475,20 3,20 C2.44771525,20 2,19.5522847 2,19 C2,18.4477153 2.44771525,18 3,18 C3.55228475,18 4,18.4477153 4,19" id="Shape" fill="#0096E6" fill-rule="nonzero"></path>
            <path d="M16,19 C16,19.5522847 15.5522847,20 15,20 C14.4477153,20 14,19.5522847 14,19 C14,18.4477153 14.4477153,18 15,18 C15.5522847,18 16,18.4477153 16,19" id="Shape" fill="#0096E6" fill-rule="nonzero"></path>
            <path d="M20,19 C20,19.5522847 19.5522847,20 19,20 C18.4477153,20 18,19.5522847 18,19 C18,18.4477153 18.4477153,18 19,18 C19.5522847,18 20,18.4477153 20,19" id="Shape" fill="#0096E6" fill-rule="nonzero"></path>
            <path d="M24,19 C24,19.5522847 23.5522847,20 23,20 C22.4477153,20 22,19.5522847 22,19 C22,18.4477153 22.4477153,18 23,18 C23.5522847,18 24,18.4477153 24,19" id="Shape" fill="#0096E6" fill-rule="nonzero"></path>
            <path d="M28,19 C28,19.5522847 27.5522847,20 27,20 C26.4477153,20 26,19.5522847 26,19 C26,18.4477153 26.4477153,18 27,18 C27.5522847,18 28,18.4477153 28,19" id="Shape" fill="#0096E6" fill-rule="nonzero"></path>
            <path d="M30,21 C30,21.5522847 29.5522847,22 29,22 C28.4477153,22 28,21.5522847 28,21 C28,20.4477153 28.4477153,20 29,20 C29.5522847,20 30,20.4477153 30,21" id="Shape" fill="#0096E6" fill-rule="nonzero"></path>
            <path d="M26,21 C26,21.5522847 25.5522847,22 25,22 C24.4477153,22 24,21.5522847 24,21 C24,20.4477153 24.4477153,20 25,20 C25.5522847,20 26,20.4477153 26,21" id="Shape" fill="#0096E6" fill-rule="nonzero"></path>
            <path d="M22,21 C22,21.5522847 21.5522847,22 21,22 C20.4477153,22 20,21.5522847 20,21 C20,20.4477153 20.4477153,20 21,20 C21.5522847,20 22,20.4477153 22,21" id="Shape" fill="#0096E6" fill-rule="nonzero"></path>
            <path d="M18,21 C18,21.5522847 17.5522847,22 17,22 C16.4477153,22 16,21.5522847 16,21 C16,20.4477153 16.4477153,20 17,20 C17.5522847,20 18,20.4477153 18,21" id="Shape" fill="#0096E6" fill-rule="nonzero"></path>
            <path d="M14,21 C14,21.5522847 13.5522847,22 13,22 C12.4477153,22 12,21.5522847 12,21 C12,20.4477153 12.4477153,20 13,20 C13.5522847,20 14,20.4477153 14,21" id="Shape" fill="#0096E6" fill-rule="nonzero"></path>
            <path d="M6,21 C6,21.5522847 5.55228475,22 5,22 C4.44771525,22 4,21.5522847 4,21 C4,20.4477153 4.44771525,20 5,20 C5.55228475,20 6,20.4477153 6,21" id="Shape" fill="#0096E6" fill-rule="nonzero"></path>
            <path d="M2,21 C2,21.5522847 1.55228475,22 1,22 C0.44771525,22 6.76353751e-17,21.5522847 0,21 C-6.76353751e-17,20.4477153 0.44771525,20 1,20 C1.55228475,20 2,20.4477153 2,21" id="Shape" fill="#0096E6" fill-rule="nonzero"></path>
            <path d="M4,23 C4,23.5522847 3.55228475,24 3,24 C2.44771525,24 2,23.5522847 2,23 C2,22.4477153 2.44771525,22 3,22 C3.55228475,22 4,22.4477153 4,23" id="Shape" fill="#0096E6" fill-rule="nonzero"></path>
            <path d="M8,23 C8,23.5522847 7.55228475,24 7,24 C6.44771525,24 6,23.5522847 6,23 C6,22.4477153 6.44771525,22 7,22 C7.55228475,22 8,22.4477153 8,23" id="Shape" fill="#0096E6" fill-rule="nonzero"></path>
            <path d="M12,23 C12,23.5522847 11.5522847,24 11,24 C10.4477153,24 10,23.5522847 10,23 C10,22.4477153 10.4477153,22 11,22 C11.5522847,22 12,22.4477153 12,23" id="Shape" fill="#0096E6" fill-rule="nonzero"></path>
            <path d="M16,23 C16,23.5522847 15.5522847,24 15,24 C14.4477153,24 14,23.5522847 14,23 C14,22.4477153 14.4477153,22 15,22 C15.5522847,22 16,22.4477153 16,23" id="Shape" fill="#0096E6" fill-rule="nonzero"></path>
            <path d="M20,23 C20,23.5522847 19.5522847,24 19,24 C18.4477153,24 18,23.5522847 18,23 C18,22.4477153 18.4477153,22 19,22 C19.5522847,22 20,22.4477153 20,23" id="Shape" fill="#0096E6" fill-rule="nonzero"></path>
            <path d="M24,23 C24,23.5522847 23.5522847,24 23,24 C22.4477153,24 22,23.5522847 22,23 C22,22.4477153 22.4477153,22 23,22 C23.5522847,22 24,22.4477153 24,23" id="Shape" fill="#0096E6" fill-rule="nonzero"></path>
            <path d="M28,23 C28,23.5522847 27.5522847,24 27,24 C26.4477153,24 26,23.5522847 26,23 C26,22.4477153 26.4477153,22 27,22 C27.5522847,22 28,22.4477153 28,23" id="Shape" fill="#0096E6" fill-rule="nonzero"></path>
            <path d="M26,25 C26,25.5522847 25.5522847,26 25,26 C24.4477153,26 24,25.5522847 24,25 C24,24.4477153 24.4477153,24 25,24 C25.5522847,24 26,24.4477153 26,25" id="Shape" fill="#0096E6" fill-rule="nonzero"></path>
            <path d="M22,25 C22,25.5522847 21.5522847,26 21,26 C20.4477153,26 20,25.5522847 20,25 C20,24.4477153 20.4477153,24 21,24 C21.5522847,24 22,24.4477153 22,25" id="Shape" fill="#0096E6" fill-rule="nonzero"></path>
            <path d="M18,25 C18,25.5522847 17.5522847,26 17,26 C16.4477153,26 16,25.5522847 16,25 C16,24.4477153 16.4477153,24 17,24 C17.5522847,24 18,24.4477153 18,25" id="Shape" fill="#0096E6" fill-rule="nonzero"></path>
            <path d="M14,25 C14,25.5522847 13.5522847,26 13,26 C12.4477153,26 12,25.5522847 12,25 C12,24.4477153 12.4477153,24 13,24 C13.5522847,24 14,24.4477153 14,25" id="Shape" fill="#0096E6" fill-rule="nonzero"></path>
            <path d="M10,25 C10,25.5522847 9.55228475,26 9,26 C8.44771525,26 8,25.5522847 8,25 C8,24.4477153 8.44771525,24 9,24 C9.55228475,24 10,24.4477153 10,25" id="Shape" fill="#0096E6" fill-rule="nonzero"></path>
            <path d="M6,25 C6,25.5522847 5.55228475,26 5,26 C4.44771525,26 4,25.5522847 4,25 C4,24.4477153 4.44771525,24 5,24 C5.55228475,24 6,24.4477153 6,25" id="Shape" fill="#0096E6" fill-rule="nonzero"></path>
            <path d="M2,25 C2,25.5522847 1.55228475,26 1,26 C0.44771525,26 6.76353751e-17,25.5522847 0,25 C-6.76353751e-17,24.4477153 0.44771525,24 1,24 C1.55228475,24 2,24.4477153 2,25" id="Shape" fill="#0096E6" fill-rule="nonzero"></path>
            <path d="M4,27 C4,27.5522847 3.55228475,28 3,28 C2.44771525,28 2,27.5522847 2,27 C2,26.4477153 2.44771525,26 3,26 C3.55228475,26 4,26.4477153 4,27" id="Shape" fill="#0096E6" fill-rule="nonzero"></path>
            <path d="M8,27 C8,27.5522847 7.55228475,28 7,28 C6.44771525,28 6,27.5522847 6,27 C6,26.4477153 6.44771525,26 7,26 C7.55228475,26 8,26.4477153 8,27" id="Shape" fill="#0096E6" fill-rule="nonzero"></path>
            <path d="M12,27 C12,27.5522847 11.5522847,28 11,28 C10.4477153,28 10,27.5522847 10,27 C10,26.4477153 10.4477153,26 11,26 C11.5522847,26 12,26.4477153 12,27" id="Shape" fill="#0096E6" fill-rule="nonzero"></path>
            <path d="M24,27 C24,27.5522847 23.5522847,28 23,28 C22.4477153,28 22,27.5522847 22,27 C22,26.4477153 22.4477153,26 23,26 C23.5522847,26 24,26.4477153 24,27" id="Shape" fill="#0096E6" fill-rule="nonzero"></path>
            <path d="M10,29 C10,29.5522847 9.55228475,30 9,30 C8.44771525,30 8,29.5522847 8,29 C8,28.4477153 8.44771525,28 9,28 C9.55228475,28 10,28.4477153 10,29" id="Shape" fill="#0096E6" fill-rule="nonzero"></path>
            <path d="M6,29 C6,29.5522847 5.55228475,30 5,30 C4.44771525,30 4,29.5522847 4,29 C4,28.4477153 4.44771525,28 5,28 C5.55228475,28 6,28.4477153 6,29" id="Shape" fill="#0096E6" fill-rule="nonzero"></path>
            <path d="M2,29 C2,29.5522847 1.55228475,30 1,30 C0.44771525,30 6.76353751e-17,29.5522847 0,29 C-6.76353751e-17,28.4477153 0.44771525,28 1,28 C1.55228475,28 2,28.4477153 2,29" id="Shape" fill="#0096E6" fill-rule="nonzero"></path>
            <path d="M4,31 C4,31.5522847 3.55228475,32 3,32 C2.44771525,32 2,31.5522847 2,31 C2,30.4477153 2.44771525,30 3,30 C3.55228475,30 4,30.4477153 4,31" id="Shape" fill="#0096E6" fill-rule="nonzero"></path>
            <path d="M4,35 C4,35.5522847 3.55228475,36 3,36 C2.44771525,36 2,35.5522847 2,35 C2,34.4477153 2.44771525,34 3,34 C3.55228475,34 4,34.4477153 4,35" id="Shape" fill="#0096E6" fill-rule="nonzero"></path>
            <path d="M8,31 C8,31.5522847 7.55228475,32 7,32 C6.44771525,32 6,31.5522847 6,31 C6,30.4477153 6.44771525,30 7,30 C7.55228475,30 8,30.4477153 8,31" id="Shape" fill="#0096E6" fill-rule="nonzero"></path>
            <path d="M6,33 C6,33.5522847 5.55228475,34 5,34 C4.44771525,34 4,33.5522847 4,33 C4,32.4477153 4.44771525,32 5,32 C5.55228475,32 6,32.4477153 6,33" id="Shape" fill="#0096E6" fill-rule="nonzero"></path>
            <path d="M2,33 C2,33.5522847 1.55228475,34 1,34 C0.44771525,34 6.76353751e-17,33.5522847 0,33 C-6.76353751e-17,32.4477153 0.44771525,32 1,32 C1.55228475,32 2,32.4477153 2,33" id="Shape" fill="#0096E6" fill-rule="nonzero"></path>
        </g>
        <text id="IMG" font-family="HelveticaNeue-Bold, Helvetica Neue" font-size="14" font-weight="bold" fill="#0096E6">
            <tspan x="9" y="53">IMG</tspan>
        </text>
    </g>
</svg>