<svg width="45" height="58" viewBox="0 0 45 58" xmlns="http://www.w3.org/2000/svg"><g class="nc-icon-wrapper"><title>28 - PDF File (Webby)</title><g transform="translate(1 1)" stroke="none" stroke-width="1" fill="none" fill-rule="evenodd"><path d="M30.485 0H1.463C.655 0 0 .655 0 1.926V55c0 .345.655 1 1.463 1h40.074c.808 0 1.463-.655 1.463-1V12.978c0-.696-.093-.92-.257-1.085L31.107.257A.884.884 0 0 0 30.485 0z" fill="#FFF"></path><path d="M30.485 0H1.463C.655 0 0 .655 0 1.926V55c0 .345.655 1 1.463 1h40.074c.808 0 1.463-.655 1.463-1V12.978c0-.696-.093-.92-.257-1.085L31.107.257A.884.884 0 0 0 30.485 0z" stroke="#0096E6" stroke-width="2"></path><path d="M31 1.391V12h10.609a.514.514 0 0 0 .363-.877L31.877 1.028a.514.514 0 0 0-.877.363z" fill="#D0E8F9"></path><path d="M31 1.391V12h10.609a.514.514 0 0 0 .363-.877L31.877 1.028a.514.514 0 0 0-.877.363z" stroke="#0096E6" stroke-width="2"></path><path d="M13.014 33.324c-.348 0-.682-.113-.967-.326-1.041-.782-1.181-1.651-1.115-2.243.182-1.627 2.195-3.332 5.985-5.068 1.504-3.296 2.935-7.357 3.788-10.75-.998-2.173-1.967-4.99-1.261-6.644.248-.578.558-1.023 1.134-1.215a4.91 4.91 0 0 1 1.016-.172c.504 0 .947.649 1.261 1.049.295.377.964 1.174-.373 6.803 1.348 2.783 3.257 5.619 5.088 7.561 1.311-.237 2.439-.358 3.358-.358 1.566 0 2.515.366 2.901 1.117.321.622.189 1.349-.39 2.16-.557.779-1.324 1.191-2.22 1.191-1.216 0-2.632-.768-4.212-2.285-2.837.593-6.15 1.651-8.828 2.822-.836 1.774-1.637 3.203-2.383 4.251-1.023 1.437-1.907 2.107-2.782 2.107zm2.662-5.126c-2.138 1.201-3.009 2.188-3.071 2.744-.01.092-.037.334.431.692.149-.047 1.019-.444 2.64-3.436zm13.637-4.442c.815.627 1.014.944 1.547.944.234 0 .902-.01 1.21-.441.149-.209.207-.343.229-.414-.122-.066-.286-.197-1.175-.197-.504 0-1.139.021-1.811.108zm-7.47-6.582a71.74 71.74 0 0 1-2.674 7.564 49.918 49.918 0 0 1 6.496-2.02c-1.35-1.568-2.699-3.526-3.822-5.544zm-.607-8.462c-.098.033-1.33 1.757.096 3.216.949-2.115-.053-3.23-.096-3.216z" fill="#0096E6"></path><path d="M41.537 56H1.463A1.463 1.463 0 0 1 0 54.537V39h43v15.537c0 .808-.655 1.463-1.463 1.463z" fill="#D0E8F9"></path><path d="M41.537 56H1.463A1.463 1.463 0 0 1 0 54.537V39h43v15.537c0 .808-.655 1.463-1.463 1.463z" stroke="#0096E6" stroke-width="2"></path><path d="M10.885 53H9.244V42.924h2.899c.428 0 .852.068 1.271.205.419.137.795.342 1.128.615.332.274.602.604.807.991.205.388.307.823.307 1.306 0 .511-.087.973-.26 1.388a2.92 2.92 0 0 1-.724 1.046c-.31.282-.684.501-1.121.656a4.318 4.318 0 0 1-1.449.232h-1.217V53zm0-8.832v3.992h1.504c.2 0 .398-.034.594-.102.196-.069.376-.18.54-.335.164-.156.296-.371.397-.65.1-.278.15-.622.15-1.032a2.8 2.8 0 0 0-.068-.567 1.648 1.648 0 0 0-.28-.616 1.657 1.657 0 0 0-.595-.492c-.255-.132-.593-.198-1.012-.198h-1.23z" fill="#0096E6"></path><path d="M25.719 47.682c0 .829-.089 1.538-.267 2.126-.178.588-.403 1.08-.677 1.476a3.463 3.463 0 0 1-.923.937 4.6 4.6 0 0 1-.991.512 4.035 4.035 0 0 1-.875.219c-.264.032-.46.048-.588.048h-3.814V42.924h3.035c.848 0 1.593.135 2.235.403.643.269 1.176.627 1.6 1.073.424.447.74.955.95 1.525.21.569.315 1.155.315 1.757zm-4.867 4.115c1.111 0 1.914-.356 2.406-1.067.492-.711.738-1.741.738-3.089 0-.419-.05-.834-.15-1.244a2.659 2.659 0 0 0-.581-1.115c-.288-.333-.677-.601-1.169-.806-.493-.205-1.131-.308-1.914-.308h-.957v7.629h1.627z" fill="#0096E6"></path><path d="M29.766 44.168v3.172h4.211v1.121h-4.211V53h-1.668V42.924H34.4v1.244h-4.634" fill="#0096E6"></path></g></g></svg>