<svg width="45" height="58" viewBox="0 0 45 58" xmlns="http://www.w3.org/2000/svg">
    <g class="nc-icon-wrapper">
        <title>8 - ZIP File (Webby)</title>
        <g transform="translate(1 1)" stroke="none" stroke-width="1" fill="none" fill-rule="evenodd">
            <path d="M30.485 0H1.463C.655 0 0 .655 0 1.926V55c0 .345.655 1 1.463 1h40.074c.808 0 1.463-.655 1.463-1V12.978c0-.696-.093-.92-.257-1.085L31.107.257A.884.884 0 0 0 30.485 0z"
                  fill="#FFF"></path>
            <path d="M30.485 0H1.463C.655 0 0 .655 0 1.926V55c0 .345.655 1 1.463 1h40.074c.808 0 1.463-.655 1.463-1V12.978c0-.696-.093-.92-.257-1.085L31.107.257A.884.884 0 0 0 30.485 0z"
                  stroke="#0096E6" stroke-width="2"></path>
            <path d="M41.537 56H1.463A1.463 1.463 0 0 1 0 54.537V39h43v15.537c0 .808-.655 1.463-1.463 1.463z"
                  fill="#D0E8F9"></path>
            <path d="M41.537 56H1.463A1.463 1.463 0 0 1 0 54.537V39h43v15.537c0 .808-.655 1.463-1.463 1.463z"
                  stroke="#0096E6" stroke-width="2"></path>
            <path d="M31 1.391V12h10.609a.514.514 0 0 0 .363-.877L31.877 1.028a.514.514 0 0 0-.877.363z"
                  fill="#D0E8F9"></path>
            <path d="M31 1.391V12h10.609a.514.514 0 0 0 .363-.877L31.877 1.028a.514.514 0 0 0-.877.363z"
                  stroke="#0096E6" stroke-width="2"></path>
            <path d="M18.766 42.924v1.326l-4.799 7.205-.274.219h5.073V53h-6.7v-1.326l4.799-7.205.287-.219h-5.086v-1.326h6.7"
                  fill="#0096E6"></path>
            <path d="M21.104 42.924h1.668V53h-1.668V42.924z" fill="#0096E6"></path>
            <path d="M26.914 53h-1.641V42.924h2.899c.428 0 .852.068 1.271.205.419.137.795.342 1.128.615.333.274.602.604.807.991.205.388.307.823.307 1.306 0 .511-.086.973-.259 1.388a2.922 2.922 0 0 1-.725 1.046c-.31.282-.683.501-1.121.656a4.314 4.314 0 0 1-1.449.232h-1.217V53zm0-8.832v3.992h1.504c.2 0 .398-.034.595-.102.195-.069.376-.18.54-.335.164-.156.296-.371.396-.65.1-.278.151-.622.151-1.032a2.73 2.73 0 0 0-.069-.567 1.648 1.648 0 0 0-.28-.616 1.657 1.657 0 0 0-.595-.492c-.255-.132-.592-.198-1.011-.198h-1.231z"
                  fill="#0096E6"></path>
            <path d="M21 6v19" stroke="#0096E6" stroke-width="2"></path>
            <path d="M21 33a4 4 0 0 1-4-4v-4h8v4a4 4 0 0 1-4 4z" fill="#D0E8F9"></path>
            <path d="M21 33a4 4 0 0 1-4-4v-4h8v4a4 4 0 0 1-4 4z" stroke="#0096E6" stroke-width="2"></path>
            <path d="M18 21h6m-6-4h6m-6-4h6m-6-4h6" stroke="#0096E6" stroke-width="2"></path>
            <path d="M20 29h2" stroke="#0096E6" stroke-width="2" stroke-linecap="round"></path>
        </g>
    </g>
</svg>