<svg width="45" height="58" viewBox="0 0 45 58" xmlns="http://www.w3.org/2000/svg">
    <g class="nc-icon-wrapper">
        <title>29 - DOC File (Webby)</title>
        <g transform="translate(1 1)" stroke="none" stroke-width="1" fill="none" fill-rule="evenodd">
            <path d="M30.485 0H1.463C.655 0 0 .655 0 1.926V55c0 .345.655 1 1.463 1h40.074c.808 0 1.463-.655 1.463-1V12.978c0-.696-.093-.92-.257-1.085L31.107.257A.884.884 0 0 0 30.485 0z"
                  fill="#FFF"></path>
            <path d="M30.485 0H1.463C.655 0 0 .655 0 1.926V55c0 .345.655 1 1.463 1h40.074c.808 0 1.463-.655 1.463-1V12.978c0-.696-.093-.92-.257-1.085L31.107.257A.884.884 0 0 0 30.485 0z"
                  stroke="#0096E6" stroke-width="2"></path>
            <path d="M20 17a1 1 0 1 1-2 0 1 1 0 0 1 2 0" fill="#0096E6"></path>
            <path d="M7 32a1 1 0 1 1-2 0 1 1 0 0 1 2 0" fill="#0096E6"></path>
            <path d="M31 1.391V12h10.609a.514.514 0 0 0 .363-.877L31.877 1.028a.514.514 0 0 0-.877.363z"
                  fill="#D0E8F9"></path>
            <path d="M31 1.391V12h10.609a.514.514 0 0 0 .363-.877L31.877 1.028a.514.514 0 0 0-.877.363z"
                  stroke="#0096E6" stroke-width="2"></path>
            <path d="M6 12h6m-6 5h9m8 0h8M10 32h8m17-15h2M6 22h22m3 0h6M6 27h4m4 0h10m4 0h9" stroke="#0096E6"
                  stroke-width="2" stroke-linecap="round"></path>
            <path d="M41.537 56H1.463A1.463 1.463 0 0 1 0 54.537V39h43v15.537c0 .808-.655 1.463-1.463 1.463z"
                  fill="#D0E8F9"></path>
            <path d="M41.537 56H1.463A1.463 1.463 0 0 1 0 54.537V39h43v15.537c0 .808-.655 1.463-1.463 1.463z"
                  stroke="#0096E6" stroke-width="2"></path>
            <path d="M17 47.682c0 .829-.089 1.538-.267 2.126-.177.588-.403 1.08-.676 1.476a3.478 3.478 0 0 1-.923.937 4.646 4.646 0 0 1-.991.512 4.05 4.05 0 0 1-.875.219 5.44 5.44 0 0 1-.588.048H8.865V42.924H11.9c.848 0 1.593.135 2.236.403.642.269 1.175.627 1.599 1.073.424.447.741.955.95 1.525.21.569.315 1.155.315 1.757zm-4.867 4.115c1.112 0 1.914-.356 2.406-1.067.492-.711.738-1.741.738-3.089 0-.419-.05-.834-.15-1.244a2.659 2.659 0 0 0-.581-1.115c-.287-.333-.677-.601-1.169-.806-.492-.205-1.13-.308-1.914-.308h-.957v7.629h1.627z"
                  fill="#0096E6"></path>
            <path d="M26.975 47.914c0 .848-.108 1.595-.322 2.242-.214.648-.51 1.185-.888 1.614a3.741 3.741 0 0 1-1.327.97 4.131 4.131 0 0 1-1.661.328 4.138 4.138 0 0 1-1.661-.328 3.729 3.729 0 0 1-1.326-.97c-.378-.429-.675-.966-.889-1.614-.214-.647-.321-1.394-.321-2.242 0-.848.107-1.593.321-2.235.214-.643.511-1.178.889-1.607.378-.428.82-.754 1.326-.977a4.058 4.058 0 0 1 1.661-.335c.602 0 1.156.111 1.661.335a3.81 3.81 0 0 1 1.327.977c.378.429.674.964.888 1.607.214.642.322 1.387.322 2.235zm-4.239 3.814c.337 0 .658-.066.964-.198.305-.132.579-.348.82-.649.242-.301.431-.696.568-1.183.137-.487.209-1.082.219-1.784-.01-.684-.08-1.265-.212-1.743-.133-.479-.315-.873-.547-1.183a2.116 2.116 0 0 0-.793-.67 2.225 2.225 0 0 0-.937-.205c-.337 0-.658.064-.964.192a2.063 2.063 0 0 0-.82.649c-.242.306-.431.699-.567 1.183-.137.483-.21 1.075-.219 1.777.009.684.08 1.267.212 1.75.132.483.314.877.547 1.183.232.305.496.528.793.67.296.141.608.211.936.211z"
                  fill="#0096E6"></path>
            <path d="M36.107 51.975a3.735 3.735 0 0 1-1.271.82 4.212 4.212 0 0 1-1.531.273 4.131 4.131 0 0 1-1.661-.328 3.733 3.733 0 0 1-1.327-.97c-.378-.429-.674-.966-.888-1.614-.215-.647-.322-1.394-.322-2.242 0-.848.107-1.593.322-2.235.214-.643.51-1.178.888-1.607a3.786 3.786 0 0 1 1.333-.977 4.074 4.074 0 0 1 1.655-.335c.547 0 1.057.091 1.531.273.474.183.897.456 1.271.82l-1.134 1.012a2.083 2.083 0 0 0-.759-.574 2.207 2.207 0 0 0-.868-.178c-.338 0-.659.064-.964.192a2.066 2.066 0 0 0-.821.649c-.241.306-.43.699-.567 1.183-.137.483-.21 1.075-.219 1.777.009.684.08 1.267.212 1.75.132.483.315.877.547 1.183.233.305.497.528.793.67.296.141.608.211.937.211a2.4 2.4 0 0 0 .922-.177 2.17 2.17 0 0 0 .787-.574l1.134.998"
                  fill="#0096E6"></path>
        </g>
    </g>
</svg>