<svg width="44" height="61" viewBox="0 0 44 61" xmlns="http://www.w3.org/2000/svg">
    <g class="nc-icon-wrapper">
        <title>66 -Video File- (Webby)</title>
        <g transform="translate(1 1)" stroke="none" stroke-width="1" fill="none" fill-rule="evenodd">
            <path d="M42 12.014H32a2 2 0 0 1-2-2v-10l12 12z" fill="#D0E8F9"></path>
            <path d="M42 12.014H32a2 2 0 0 1-2-2v-10l12 12z" stroke="#0096E6" stroke-width="2" stroke-linecap="round"
                  stroke-linejoin="round"></path>
            <path d="M42 12.014H32a2 2 0 0 1-2-2v-10H2a2 2 0 0 0-2 2v54a2 2 0 0 0 2 2h38a2 2 0 0 0 2-2v-44z"
                  fill="#FFF"></path>
            <path d="M42 12.014H32a2 2 0 0 1-2-2v-10H2a2 2 0 0 0-2 2v54a2 2 0 0 0 2 2h38a2 2 0 0 0 2-2v-44z"
                  stroke="#0096E6" stroke-width="2" stroke-linecap="round" stroke-linejoin="round"></path>
            <path d="M24 37.014H8a2 2 0 0 1-2-2v-12a2 2 0 0 1 2-2h16a2 2 0 0 1 2 2v12a2 2 0 0 1-2 2"
                  fill="#D0E8F9"></path>
            <path d="M24 37.014H8a2 2 0 0 1-2-2v-12a2 2 0 0 1 2-2h16a2 2 0 0 1 2 2v12a2 2 0 0 1-2 2z" stroke="#0096E6"
                  stroke-width="2" stroke-linecap="round" stroke-linejoin="round"></path>
            <path d="M33.425 35.242L26 33.014v-8l7.425-2.227A2 2 0 0 1 36 24.702v8.624a2 2 0 0 1-2.575 1.916"
                  fill="#D0E8F9"></path>
            <path d="M33.425 35.242L26 33.014v-8l7.425-2.227A2 2 0 0 1 36 24.702v8.624a2 2 0 0 1-2.575 1.916z"
                  stroke="#0096E6" stroke-width="2" stroke-linecap="round" stroke-linejoin="round"></path>
            <path d="M26 48.014h10" stroke="#0196E7" stroke-width="2" stroke-linecap="round"
                  stroke-linejoin="round"></path>
            <path d="M26 52.014h5" stroke="#0196E7" stroke-width="2" stroke-linecap="round"
                  stroke-linejoin="round"></path>
            <path d="M36 52.014h-1" stroke="#0196E7" stroke-width="2" stroke-linecap="round"
                  stroke-linejoin="round"></path>
        </g>
    </g>
</svg>