<svg width="45" height="58" viewBox="0 0 45 58" xmlns="http://www.w3.org/2000/svg">
    <g class="nc-icon-wrapper">
        <title>19 - XLS File (Webby)</title>
        <g transform="translate(1 1)" stroke="none" stroke-width="1" fill="none" fill-rule="evenodd">
            <path d="M30.485 0H1.463C.655 0 0 .655 0 1.926V55c0 .345.655 1 1.463 1h40.074c.808 0 1.463-.655 1.463-1V12.978c0-.696-.093-.92-.257-1.085L31.107.257A.884.884 0 0 0 30.485 0z"
                  fill="#FFF"></path>
            <path d="M30.485 0H1.463C.655 0 0 .655 0 1.926V55c0 .345.655 1 1.463 1h40.074c.808 0 1.463-.655 1.463-1V12.978c0-.696-.093-.92-.257-1.085L31.107.257A.884.884 0 0 0 30.485 0z"
                  stroke="#0096E6" stroke-width="2"></path>
            <path d="M41.537 56H1.463A1.463 1.463 0 0 1 0 54.537V39h43v15.537c0 .808-.655 1.463-1.463 1.463z"
                  fill="#D0E8F9"></path>
            <path d="M41.537 56H1.463A1.463 1.463 0 0 1 0 54.537V39h43v15.537c0 .808-.655 1.463-1.463 1.463z"
                  stroke="#0096E6" stroke-width="2"></path>
            <path d="M31 1.391V12h10.609a.514.514 0 0 0 .363-.877L31.877 1.028a.513.513 0 0 0-.877.363z"
                  fill="#D0E8F9"></path>
            <path d="M31 1.391V12h10.609a.514.514 0 0 0 .363-.877L31.877 1.028a.513.513 0 0 0-.877.363z"
                  stroke="#0096E6" stroke-width="2"></path>
            <path d="M13.879 48.106L16.435 53h-1.9l-1.6-3.801h-.136L11.076 53h-1.9l2.556-4.894-2.72-5.182h1.873l1.777 4.101h.137l1.928-4.101H16.6l-2.721 5.182"
                  fill="#0096E6"></path>
            <path d="M20.537 42.924v8.832h4.635V53h-6.303V42.924h1.668" fill="#0096E6"></path>
            <path d="M32.541 50.238c0 .365-.075.718-.226 1.06-.15.342-.362.642-.635.902-.274.26-.611.467-1.012.622a3.771 3.771 0 0 1-1.367.233c-.219 0-.445-.012-.677-.035a5.35 5.35 0 0 1-.704-.116 3.684 3.684 0 0 1-.677-.225 2.17 2.17 0 0 1-.554-.349l.288-1.176c.127.073.289.144.485.212.196.069.398.132.608.192.21.059.419.107.629.143.21.036.405.055.588.055.556 0 .982-.13 1.278-.39.296-.26.445-.644.445-1.155 0-.31-.105-.574-.315-.793a3.383 3.383 0 0 0-.786-.595 19.719 19.719 0 0 0-1.018-.533 6.224 6.224 0 0 1-1.026-.629 3.281 3.281 0 0 1-.793-.854c-.21-.328-.314-.739-.314-1.231 0-.446.082-.843.246-1.189a2.65 2.65 0 0 1 .663-.882c.278-.241.602-.426.971-.554a3.538 3.538 0 0 1 1.169-.191c.419 0 .842.039 1.271.116.428.077.774.203 1.039.376a13.31 13.31 0 0 1-.191.39l-.205.396c-.064.123-.119.226-.164.308a1.257 1.257 0 0 1-.082.136 1.566 1.566 0 0 1-.185-.109 1.367 1.367 0 0 0-.294-.137 2.055 2.055 0 0 0-.506-.095 4.861 4.861 0 0 0-.806.013 1.408 1.408 0 0 0-.52.158c-.164.086-.31.193-.437.321a1.473 1.473 0 0 0-.301.43 1.09 1.09 0 0 0-.11.458c0 .365.105.659.315.882.209.224.469.419.779.588.31.169.647.333 1.012.492.364.16.704.354 1.018.582.315.227.577.512.787.854.209.342.314.781.314 1.319"
                  fill="#0096E6"></path>
            <path d="M6 17h10v4H6v-4z" fill="#D0E8F9"></path>
            <path d="M6 17h10v4H6v-4z" stroke="#0096E6" stroke-width="2"></path>
            <path d="M6 13h10v4H6v-4z" fill="#D0E8F9"></path>
            <path d="M6 13h10v4H6v-4z" stroke="#0096E6" stroke-width="2"></path>
            <path d="M16 17h21v4H16v-4z" fill="#D0E8F9"></path>
            <path d="M16 17h21v4H16v-4z" stroke="#0096E6" stroke-width="2"></path>
            <path d="M6 21h10v4H6v-4z" fill="#D0E8F9"></path>
            <path d="M6 21h10v4H6v-4z" stroke="#0096E6" stroke-width="2"></path>
            <path d="M16 21h21v4H16v-4z" fill="#D0E8F9"></path>
            <path d="M16 21h21v4H16v-4z" stroke="#0096E6" stroke-width="2"></path>
            <path d="M6 25h10v4H6v-4z" fill="#D0E8F9"></path>
            <path d="M6 25h10v4H6v-4z" stroke="#0096E6" stroke-width="2"></path>
            <path d="M16 25h21v4H16v-4z" fill="#D0E8F9"></path>
            <path d="M16 25h21v4H16v-4z" stroke="#0096E6" stroke-width="2"></path>
            <path d="M6 29h10v4H6v-4z" fill="#D0E8F9"></path>
            <path d="M6 29h10v4H6v-4z" stroke="#0096E6" stroke-width="2"></path>
            <path d="M16 29h21v4H16v-4z" fill="#D0E8F9"></path>
            <path d="M16 29h21v4H16v-4z" stroke="#0096E6" stroke-width="2"></path>
        </g>
    </g>
</svg>