<svg width="45" height="58" viewBox="0 0 45 58" xmlns="http://www.w3.org/2000/svg">
    <g class="nc-icon-wrapper">
        <title>9 - PPT File (Webby)</title>
        <g transform="translate(1 1)" stroke="none" stroke-width="1" fill="none" fill-rule="evenodd">
            <path d="M30.485 0H1.463C.655 0 0 .655 0 1.463v53.074C0 55.345.655 56 1.463 56h40.074c.808 0 1.463-.655 1.463-1.463V12.515a.884.884 0 0 0-.257-.622L31.107.257A.884.884 0 0 0 30.485 0z"
                  fill="#FFF"></path>
            <path d="M30.485 0H1.463C.655 0 0 .655 0 1.463v53.074C0 55.345.655 56 1.463 56h40.074c.808 0 1.463-.655 1.463-1.463V12.515a.884.884 0 0 0-.257-.622L31.107.257A.884.884 0 0 0 30.485 0z"
                  stroke="#0096E6" stroke-width="2"></path>
            <path d="M41.537 56H1.463A1.463 1.463 0 0 1 0 54.537V39h43v15.537c0 .808-.655 1.463-1.463 1.463z"
                  fill="#D0E8F9"></path>
            <path d="M41.537 56H1.463A1.463 1.463 0 0 1 0 54.537V39h43v15.537c0 .808-.655 1.463-1.463 1.463z"
                  stroke="#0096E6" stroke-width="2"></path>
            <path d="M31 1.391V12h10.609a.514.514 0 0 0 .363-.877L31.877 1.028a.513.513 0 0 0-.877.363z"
                  fill="#D0E8F9"></path>
            <path d="M31 1.391V12h10.609a.514.514 0 0 0 .363-.877L31.877 1.028a.513.513 0 0 0-.877.363z"
                  stroke="#0096E6" stroke-width="2"></path>
            <path d="M11.081 53H9.44V42.924h2.899c.428 0 .852.068 1.271.205.419.137.795.342 1.128.615.333.274.602.604.807.991.205.388.307.823.307 1.306 0 .511-.086.973-.259 1.388a2.922 2.922 0 0 1-.725 1.046c-.31.282-.683.501-1.121.656a4.314 4.314 0 0 1-1.449.232h-1.217V53zm0-8.832v3.992h1.504c.2 0 .398-.034.595-.102.195-.069.376-.18.54-.335.164-.156.296-.371.396-.65.1-.278.151-.622.151-1.032a2.73 2.73 0 0 0-.069-.567 1.648 1.648 0 0 0-.28-.616 1.657 1.657 0 0 0-.595-.492c-.255-.132-.593-.198-1.012-.198h-1.23z"
                  fill="#0096E6"></path>
            <path d="M19.352 53h-1.64V42.924h2.898c.429 0 .852.068 1.272.205.419.137.795.342 1.128.615.332.274.601.604.806.991.205.388.308.823.308 1.306 0 .511-.087.973-.26 1.388a2.92 2.92 0 0 1-.724 1.046c-.31.282-.684.501-1.121.656a4.32 4.32 0 0 1-1.45.232h-1.217V53zm0-8.832v3.992h1.504c.201 0 .399-.034.595-.102.196-.069.376-.18.54-.335.164-.156.296-.371.397-.65.1-.278.15-.622.15-1.032 0-.164-.023-.354-.068-.567a1.635 1.635 0 0 0-.281-.616 1.645 1.645 0 0 0-.594-.492c-.256-.132-.593-.198-1.012-.198h-1.231z"
                  fill="#0096E6"></path>
            <path d="M33.106 42.924v1.121h-3.007V53h-1.655v-8.955h-3.008v-1.121h7.67" fill="#0096E6"></path>
            <path d="M10 15h22v14H10V15z" fill="#D0E8F9"></path>
            <path d="M10 15h22v14H10V15z" stroke="#0096E6" stroke-width="2" stroke-linecap="round"></path>
            <path d="M17 29l-3 5m11-5l3 5m-7-19v-3" stroke="#0096E6" stroke-width="2" stroke-linecap="round"></path>
            <path d="M12 16a1 1 0 1 1-2 0 1 1 0 0 1 2 0" fill="#0096E6"></path>
            <path d="M12 20a1 1 0 1 1-2 0 1 1 0 0 1 2 0" fill="#0096E6"></path>
            <path d="M14 18a1 1 0 1 1-2 0 1 1 0 0 1 2 0" fill="#0096E6"></path>
            <path d="M12 24a1 1 0 1 1-2 0 1 1 0 0 1 2 0" fill="#0096E6"></path>
            <path d="M12 28a1 1 0 1 1-2 0 1 1 0 0 1 2 0" fill="#0096E6"></path>
            <path d="M14 26a1 1 0 1 1-2 0 1 1 0 0 1 2 0" fill="#0096E6"></path>
            <path d="M14 22a1 1 0 1 1-2 0 1 1 0 0 1 2 0" fill="#0096E6"></path>
            <path d="M16 16a1 1 0 1 1-2 0 1 1 0 0 1 2 0" fill="#0096E6"></path>
            <path d="M16 20a1 1 0 1 1-2 0 1 1 0 0 1 2 0" fill="#0096E6"></path>
            <path d="M18 18a1 1 0 1 1-2 0 1 1 0 0 1 2 0" fill="#0096E6"></path>
            <path d="M16 24a1 1 0 1 1-2 0 1 1 0 0 1 2 0" fill="#0096E6"></path>
            <path d="M16 28a1 1 0 1 1-2 0 1 1 0 0 1 2 0" fill="#0096E6"></path>
            <path d="M18 26a1 1 0 1 1-2 0 1 1 0 0 1 2 0" fill="#0096E6"></path>
            <path d="M18 22a1 1 0 1 1-2 0 1 1 0 0 1 2 0" fill="#0096E6"></path>
            <path d="M20 16a1 1 0 1 1-2 0 1 1 0 0 1 2 0" fill="#0096E6"></path>
            <path d="M20 20a1 1 0 1 1-2 0 1 1 0 0 1 2 0" fill="#0096E6"></path>
            <path d="M22 18a1 1 0 1 1-2 0 1 1 0 0 1 2 0" fill="#0096E6"></path>
            <path d="M20 24a1 1 0 1 1-2 0 1 1 0 0 1 2 0" fill="#0096E6"></path>
            <path d="M20 28a1 1 0 1 1-2 0 1 1 0 0 1 2 0" fill="#0096E6"></path>
            <path d="M22 26a1 1 0 1 1-2 0 1 1 0 0 1 2 0" fill="#0096E6"></path>
            <path d="M22 22a1 1 0 1 1-2 0 1 1 0 0 1 2 0" fill="#0096E6"></path>
            <path d="M24 16a1 1 0 1 1-2 0 1 1 0 0 1 2 0" fill="#0096E6"></path>
            <path d="M24 20a1 1 0 1 1-2 0 1 1 0 0 1 2 0" fill="#0096E6"></path>
            <path d="M26 18a1 1 0 1 1-2 0 1 1 0 0 1 2 0" fill="#0096E6"></path>
            <path d="M24 24a1 1 0 1 1-2 0 1 1 0 0 1 2 0" fill="#0096E6"></path>
            <path d="M24 28a1 1 0 1 1-2 0 1 1 0 0 1 2 0" fill="#0096E6"></path>
            <path d="M26 26a1 1 0 1 1-2 0 1 1 0 0 1 2 0" fill="#0096E6"></path>
            <path d="M26 22a1 1 0 1 1-2 0 1 1 0 0 1 2 0" fill="#0096E6"></path>
            <path d="M28 16a1 1 0 1 1-2 0 1 1 0 0 1 2 0" fill="#0096E6"></path>
            <path d="M28 20a1 1 0 1 1-2 0 1 1 0 0 1 2 0" fill="#0096E6"></path>
            <path d="M30 18a1 1 0 1 1-2 0 1 1 0 0 1 2 0" fill="#0096E6"></path>
            <path d="M28 24a1 1 0 1 1-2 0 1 1 0 0 1 2 0" fill="#0096E6"></path>
            <path d="M32 20a1 1 0 1 1-2 0 1 1 0 0 1 2 0" fill="#0096E6"></path>
            <path d="M32 16a1 1 0 1 1-2 0 1 1 0 0 1 2 0" fill="#0096E6"></path>
            <path d="M32 28a1 1 0 1 1-2 0 1 1 0 0 1 2 0" fill="#0096E6"></path>
            <path d="M32 24a1 1 0 1 1-2 0 1 1 0 0 1 2 0" fill="#0096E6"></path>
            <path d="M28 28a1 1 0 1 1-2 0 1 1 0 0 1 2 0" fill="#0096E6"></path>
            <path d="M30 26a1 1 0 1 1-2 0 1 1 0 0 1 2 0" fill="#0096E6"></path>
            <path d="M30 22a1 1 0 1 1-2 0 1 1 0 0 1 2 0" fill="#0096E6"></path>
        </g>
    </g>
</svg>