<?xml version="1.0" encoding="UTF-8"?>
<svg width="45px" height="58px" viewBox="0 0 45 58" version="1.1" xmlns="http://www.w3.org/2000/svg" xmlns:xlink="http://www.w3.org/1999/xlink">
    <!-- Generator: Sketch 48 (47235) - http://www.bohemiancoding.com/sketch -->
    <title>fileIconDefault 2</title>
    <desc>Created with Sketch.</desc>
    <defs></defs>
    <g id="Page-1" stroke="none" stroke-width="1" fill="none" fill-rule="evenodd">
        <g id="fileIconDefault" transform="translate(1.000000, 1.000000)">
            <path d="M30.485,0 L1.463,0 C0.655,0 0,0.655 0,1.463 L0,54.537 C0,55.345 0.655,56 1.463,56 L41.537,56 C42.345,56 43,55.345 43,54.537 L43,12.515 C42.9996942,12.2818912 42.9073259,12.0583384 42.743,11.893 L31.107,0.257 C30.9416616,0.0926740572 30.7181088,0.000305798304 30.485,0 Z" id="Shape" fill="#FFFFFF" fill-rule="nonzero"></path>
            <path d="M30.485,0 L1.463,0 C0.655,0 0,0.655 0,1.463 L0,54.537 C0,55.345 0.655,56 1.463,56 L41.537,56 C42.345,56 43,55.345 43,54.537 L43,12.515 C42.9996942,12.2818912 42.9073259,12.0583384 42.743,11.893 L31.107,0.257 C30.9416616,0.0926740572 30.7181088,0.000305798304 30.485,0 Z" id="Shape" stroke="#0096E6" stroke-width="2"></path>
            <path d="M31,1.391 L30.9999977,12 L41.609,12 C41.8166124,11.9996347 42.00362,11.8744071 42.0830204,11.6825774 C42.1624209,11.4907478 42.1186218,11.2699867 41.972,11.123 L31.877,1.028 C31.7303703,0.880349208 31.5090733,0.835901514 31.3168036,0.915484074 C31.1245338,0.995066634 30.9993854,1.18291192 31,1.391 Z" id="Shape" fill="#D0E8F9" fill-rule="nonzero"></path>
            <path d="M31,1.391 L30.9999977,12 L41.609,12 C41.8166124,11.9996347 42.00362,11.8744071 42.0830204,11.6825774 C42.1624209,11.4907478 42.1186218,11.2699867 41.972,11.123 L31.877,1.028 C31.7303703,0.880349208 31.5090733,0.835901514 31.3168036,0.915484074 C31.1245338,0.995066634 30.9993854,1.18291192 31,1.391 Z" id="Shape" stroke="#0096E6" stroke-width="2"></path>
            <path d="M15,47 C15,48.6568542 13.6568542,50 12,50 C10.3431458,50 9,48.6568542 9,47 C9,45.3431458 10.3431458,44 12,44 C13.6568542,44 15,45.3431458 15,47 Z" id="Shape" fill="#FFFFFF" fill-rule="nonzero"></path>
            <path d="M25,47 C25,48.0717967 24.4282033,49.0621778 23.5,49.5980762 C22.5717968,50.1339746 21.4282032,50.1339746 20.5,49.5980762 C19.5717967,49.0621778 19,48.0717967 19,47 C19,45.3431457 20.3431458,44 22,44 C23.6568542,44 25,45.3431457 25,47 Z" id="Shape" fill="#FFFFFF" fill-rule="nonzero"></path>
            <path d="M35,47 C35,48.6568542 33.6568542,50 32,50 C30.3431458,50 29,48.6568542 29,47 C29,45.3431458 30.3431458,44 32,44 C33.6568542,44 35,45.3431458 35,47 Z" id="Shape" fill="#FFFFFF" fill-rule="nonzero"></path>
        </g>
    </g>
</svg>