<svg xmlns="http://www.w3.org/2000/svg"
     version="1.1"
     xmlns:xlink="http://www.w3.org/1999/xlink"
     xmlns:svgjs="http://svgjs.com/svgjs"
     viewBox="0 0 24 24"
     stroke="currentColor"
     height="24px" width="24px">
    <g transform="matrix(1,0,0,1,0,0)">
        <path d="M 12.09,8.998c1.657,0,3,1.343,3,3s-1.343,3-3,3s-3-1.343-3-3S10.433,8.998,12.09,8.998z "
              fill="none" stroke-width="1.5" stroke-linecap="round" stroke-linejoin="round"></path>
        <path d="M 12.718,1.024 c-0.319-0.347-0.86-0.37-1.207-0.05c-0.017,0.016-0.034,0.033-0.05,0.05L8.6,4.142C8.354,4.411,8.372,4.828,8.64,5.075 c0.123,0.112,0.283,0.174,0.45,0.173h6c0.365,0,0.66-0.296,0.659-0.661c0-0.165-0.062-0.324-0.173-0.445L12.718,1.024z "
               fill="none" stroke-width="1.5" stroke-linecap="round" stroke-linejoin="round"></path>
        <path d="M 11.461,22.971c0.318,0.347,0.857,0.371,1.204,0.053c0.019-0.017,0.036-0.035,0.053-0.053l2.858-3.118 c0.246-0.268,0.229-0.685-0.039-0.931c-0.122-0.112-0.281-0.174-0.447-0.174h-6c-0.365-0.001-0.661,0.293-0.663,0.657 c-0.001,0.166,0.061,0.325,0.173,0.448L11.461,22.971z"
               fill="none" stroke-width="1.5" stroke-linecap="round" stroke-linejoin="round"></path>
    </g>
</svg>