<svg xmlns="http://www.w3.org/2000/svg" version="1.1" xmlns:xlink="http://www.w3.org/1999/xlink"
     xmlns:svgjs="http://svgjs.com/svgjs" stroke="currentColor" viewBox="0 0 24 24" height="24" width="24">
    <g transform="matrix(1,0,0,1,0,0)">
        <path d="M 4.75,0.748h14.5c0.552,0,1,0.448,1,1v20.5c0,0.552-0.448,1-1,1H4.75c-0.552,0-1-0.448-1-1v-20.5 C3.75,1.196,4.198,0.748,4.75,0.748z "
              fill="none" stroke-width="1.5" stroke-linecap="round" stroke-linejoin="round"></path>
        <path d="M 20.067,22.825l-2.575-2.665c-0.425-0.429-1.005-0.667-1.609-0.662H8.118 c-0.604-0.006-1.185,0.233-1.61,0.662l-2.575,2.665 "
              fill="none" stroke-width="1.5" stroke-linecap="round" stroke-linejoin="round"></path>
        <path d="M 12,3.748c0.828,0,1.5,0.672,1.5,1.5s-0.672,1.5-1.5,1.5s-1.5-0.672-1.5-1.5 S11.172,3.748,12,3.748z "
              fill="none" stroke-width="1.5" stroke-linecap="round" stroke-linejoin="round"></path>
        <path d="M 12,12.748c0.828,0,1.5,0.672,1.5,1.5s-0.672,1.5-1.5,1.5s-1.5-0.672-1.5-1.5S11.172,12.748,12,12.748z "
              fill="none" stroke-width="1.5" stroke-linecap="round" stroke-linejoin="round"></path>
        <path d="M 12,6.748v6 " fill="none" stroke-width="1.5" stroke-linecap="round"
              stroke-linejoin="round"></path>
        <path d="M 15.75,7.5h1.169c0.645,0,1.219-0.413,1.423-1.025L20.1,1.222 " fill="none"
              stroke-width="1.5" stroke-linecap="round" stroke-linejoin="round"></path>
        <path d="M 3.905,1.213l1.753,5.26 C5.862,7.086,6.435,7.5,7.081,7.5H8.25" fill="none"
              stroke-width="1.5" stroke-linecap="round" stroke-linejoin="round"></path>
    </g>
</svg>