<svg xmlns="http://www.w3.org/2000/svg" version="1.1" xmlns:xlink="http://www.w3.org/1999/xlink"
     xmlns:svgjs="http://svgjs.com/svgjs" viewBox="0 0 24 24" height="24" width="24" stroke="currentColor">
    <g transform="matrix(1,0,0,1,0,0)">
        <path d="M 8.25,18.75H2.447 " :stroke="color" fill="none" stroke-width="1.5" stroke-linecap="round"
              stroke-linejoin="round"></path>
        <path d="M 20.25,8.25v-3c0-0.828-0.672-1.5-1.5-1.5H8.25v-1.5c0-0.828-0.672-1.5-1.5-1.5h-4.5 c-0.828,0-1.5,0.672-1.5,1.5v14.8c0.013,0.939,0.785,1.689,1.723,1.676c0.752-0.01,1.408-0.514,1.613-1.238l2.351-8.154 C6.622,8.692,7.21,8.25,7.879,8.25H21.75c0.828,0,1.5,0.671,1.501,1.499c0,0.13-0.017,0.26-0.051,0.387 "
              :stroke="color" fill="none" stroke-width="1.5" stroke-linecap="round" stroke-linejoin="round"></path>
        <path d="M 17.25,11.25 c3.314,0,6,2.686,6,6s-2.686,6-6,6s-6-2.686-6-6S13.936,11.25,17.25,11.25z "
              :stroke="color" fill="none" stroke-width="1.5" stroke-linecap="round" stroke-linejoin="round"></path>
        <path d="M 14.25,17.25h6" :stroke="color" fill="none" stroke-width="1.5" stroke-linecap="round"
              stroke-linejoin="round"></path>
    </g>
</svg>