<svg xmlns="http://www.w3.org/2000/svg" version="1.1" 
    xmlns:xlink="http://www.w3.org/1999/xlink" 
    xmlns:svgjs="http://svgjs.com/svgjs" viewBox="0 0 24 24" height="24" width="24">
    <g transform="matrix(1,0,0,1,0,0)">
        <path d="M 17.25,11.25c3.314,0,6,2.686,6,6s-2.686,6-6,6s-6-2.686-6-6S13.936,11.25,17.25,11.25z " stroke="#000000" fill="none" stroke-width="1.5" stroke-linecap="round" stroke-linejoin="round"></path>
        <path d="M 17.25,20.25v-6 " stroke="#000000" fill="none" stroke-width="1.5" stroke-linecap="round" stroke-linejoin="round"></path>
        <path d="M 17.25,14.25L15,16.5 " stroke="#000000" fill="none" stroke-width="1.5" stroke-linecap="round" stroke-linejoin="round"></path>
        <path d="M 17.25,14.25l2.25,2.25 " stroke="#000000" fill="none" stroke-width="1.5" stroke-linecap="round" stroke-linejoin="round"></path>
        <path d="M 8.25,20.25h-6c-0.828,0-1.5-0.672-1.5-1.5V2.25c0-0.828,0.672-1.5,1.5-1.5h10.629 c0.398,0,0.779,0.158,1.06,0.439l2.872,2.872c0.281,0.281,0.439,0.662,0.439,1.06V8.25 " stroke="#000000" fill="none" stroke-width="1.5" stroke-linecap="round" stroke-linejoin="round"></path>
        <path d="M 5.25,5.625 c0.207,0,0.375,0.168,0.375,0.375S5.457,6.375,5.25,6.375S4.875,6.207,4.875,6S5.043,5.625,5.25,5.625 " stroke="#000000" fill="none" stroke-width="1.5" stroke-linecap="round" stroke-linejoin="round"></path>
        <path d="M 12.085,9.586L11.25,8.25 c-0.229-0.344-0.694-0.438-1.038-0.209c-0.078,0.052-0.146,0.118-0.2,0.195l-2,2.851L6.78,10.1 c-0.323-0.259-0.795-0.207-1.054,0.116c-0.014,0.017-0.027,0.035-0.039,0.053L3.75,14.25h4.5" stroke="#000000" fill="none" stroke-width="1.5" stroke-linecap="round" stroke-linejoin="round"></path>
    </g>
</svg>