<svg xmlns="http://www.w3.org/2000/svg" version="1.1" 
    xmlns:xlink="http://www.w3.org/1999/xlink" 
    xmlns:svgjs="http://svgjs.com/svgjs" viewBox="0 0 24 24" height="24" width="24">
    <g transform="matrix(1,0,0,1,0,0)">
        <path d="M 17.25,12c0,2.899-2.351,5.25-5.25,5.25S6.75,14.899,6.75,12S9.101,6.75,12,6.75S17.25,9.101,17.25,12z " stroke="#000000" fill="none" stroke-width="1.5" stroke-linecap="round" stroke-linejoin="round"></path>
        <path d="M 17.25,12v2.25c0,1.657,1.343,3,3,3s3-1.343,3-3V12c0-6.213-5.037-11.249-11.25-11.248c-6.213,0-11.249,5.037-11.248,11.25 c0,6.213,5.037,11.249,11.249,11.248c2.434,0,4.802-0.789,6.748-2.25" stroke="#000000" fill="none" stroke-width="1.5" stroke-linecap="round" stroke-linejoin="round"></path>
    </g>
</svg>